<?xml version="1.0" standalone="no"?>
<!DOCTYPE svg PUBLIC "-//W3C//DTD SVG 20010904//EN"
 "http://www.w3.org/TR/2001/REC-SVG-20010904/DTD/svg10.dtd">
<svg version="1.0" xmlns="http://www.w3.org/2000/svg"
 width="959.000000pt" height="959.000000pt" viewBox="0 0 959.000000 959.000000"
 preserveAspectRatio="xMidYMid meet">
<metadata>
Created by potrace 1.11, written by Peter Selinger 2001-2013
</metadata>
<g transform="translate(0.000000,959.000000) scale(0.100000,-0.100000)"
fill="#000000" stroke="none">
<path d="M4745 9336 c-119 -16 -275 -56 -337 -87 -10 -5 -27 -9 -38 -9 -17 0
-119 -34 -175 -59 -47 -21 -240 -116 -245 -121 -3 -3 -16 -11 -30 -18 -162
-83 -276 -171 -446 -349 -147 -155 -164 -176 -206 -263 -92 -191 -116 -272
-119 -404 -1 -33 2 -73 6 -89 14 -53 -3 -94 -65 -157 -32 -33 -62 -70 -65 -82
-15 -49 -49 -115 -76 -148 -16 -19 -29 -41 -29 -48 0 -8 -32 -79 -72 -159 -69
-139 -72 -147 -73 -221 -1 -78 -35 -191 -76 -252 -40 -60 -59 -111 -59 -158 0
-27 -12 -85 -26 -128 -20 -62 -27 -107 -31 -209 -3 -78 -13 -159 -24 -202 -24
-92 -24 -119 2 -278 29 -183 44 -241 85 -340 109 -261 166 -358 263 -445 129
-117 150 -132 223 -157 40 -14 80 -31 88 -37 20 -16 156 -99 198 -120 25 -13
32 -23 32 -47 0 -25 -7 -34 -47 -57 -85 -49 -182 -150 -250 -261 -39 -65 -113
-217 -113 -234 0 -9 -4 -19 -10 -22 -5 -3 -10 -13 -10 -21 0 -8 -31 -79 -69
-157 -73 -152 -113 -267 -135 -394 -8 -43 -19 -91 -26 -107 -6 -16 -13 -93
-17 -170 -5 -129 -3 -146 16 -195 21 -53 21 -100 1 -126 -16 -19 -51 -160 -60
-236 -14 -122 -5 -270 20 -321 37 -77 58 -95 137 -113 32 -8 76 -11 99 -8 27
3 51 0 71 -11 28 -14 177 -16 1493 -17 803 -1 1464 2 1468 6 4 3 9 81 12 172
6 205 -4 194 170 191 69 -1 150 2 181 6 52 8 57 7 73 -15 13 -19 15 -40 10
-119 -3 -52 -10 -126 -16 -164 -8 -55 -8 -70 3 -77 18 -11 140 -11 157 -1 21
14 42 140 42 253 0 100 1 107 25 129 17 16 44 26 83 32 162 23 185 32 230 100
27 41 27 44 26 192 -1 83 -6 169 -12 191 -6 22 -17 65 -25 95 -8 30 -17 93
-20 140 -3 47 -10 105 -16 130 -5 25 -15 70 -22 100 -6 30 -26 87 -44 125 -18
39 -40 97 -50 130 -59 203 -144 330 -346 511 -36 33 -133 92 -186 113 -62 25
-54 70 15 96 26 9 76 34 112 55 36 21 99 54 140 75 124 61 207 124 303 227
133 144 182 218 283 428 129 266 148 311 164 380 8 30 24 87 37 127 13 39 23
92 23 117 0 57 25 85 100 116 103 42 125 54 195 110 100 79 141 127 166 193
26 70 22 102 -25 200 -41 85 -176 237 -239 268 -42 22 -72 21 -130 -5 -18 -8
-40 -16 -49 -20 -25 -8 -61 35 -77 92 -24 88 -95 233 -139 284 -35 42 -42 56
-37 77 10 36 9 72 -1 96 -10 24 -9 69 5 205 8 85 8 118 -4 177 -8 40 -15 86
-15 103 0 44 -31 129 -98 271 -66 140 -108 240 -118 284 -4 17 -11 35 -15 41
-5 6 -20 33 -34 59 -60 113 -215 275 -341 357 -39 26 -76 53 -83 62 -7 9 -18
16 -24 16 -5 0 -34 16 -63 35 -30 20 -71 43 -91 52 -21 8 -51 24 -66 35 -15
11 -49 28 -75 38 -26 10 -83 33 -127 51 l-80 32 -211 -1 c-182 0 -216 -3 -245
-18 -56 -29 -123 -23 -209 18 -132 64 -313 87 -495 64z m-169 -340 c67 7 145
-8 164 -31 15 -18 -3 -58 -36 -79 -16 -12 -50 -19 -87 -21 -61 -3 -81 -16 -71
-46 3 -12 -10 -25 -49 -47 -29 -16 -59 -37 -66 -45 -8 -11 -22 -14 -41 -11
-17 4 -31 1 -35 -6 -6 -10 -1 -12 19 -8 14 3 29 2 31 -2 4 -7 -58 -17 -145
-23 -19 -2 -44 -8 -55 -14 -37 -19 -185 -39 -185 -24 0 12 90 92 131 116 19
11 34 27 34 35 0 28 -72 12 -184 -40 -98 -46 -141 -55 -141 -30 0 48 68 103
206 165 43 20 93 43 109 50 140 65 241 87 298 68 26 -9 60 -11 103 -7z m1514
-28 c103 -31 190 -76 190 -100 0 -4 -31 -8 -70 -8 -63 0 -70 -2 -70 -20 0 -10
18 -34 40 -51 31 -25 42 -42 47 -73 5 -30 18 -51 58 -90 64 -62 88 -121 59
-143 -27 -20 -47 -16 -93 18 -24 17 -55 31 -69 32 -15 1 -30 6 -33 11 -4 5
-12 7 -19 4 -17 -5 53 -77 95 -98 20 -10 31 -24 33 -42 6 -54 -53 -44 -244 43
-38 17 -96 32 -150 39 -114 15 -180 36 -224 71 -28 23 -46 29 -90 30 -84 3
-169 23 -237 58 -67 33 -71 45 -24 73 17 9 41 35 55 57 15 23 33 41 40 41 8 0
18 9 21 20 3 11 15 25 26 31 22 12 137 13 238 3 88 -8 116 4 108 50 -7 47 27
65 109 59 35 -3 70 -1 80 5 11 6 28 9 39 5 11 -3 49 -14 85 -25z m-875 -352
c18 -8 41 -28 49 -44 l16 -31 -36 -11 c-19 -7 -45 -9 -57 -5 -12 4 -58 10
-102 14 -77 6 -80 7 -83 32 -4 32 11 40 88 49 86 11 89 11 125 -4z m150 -221
c66 -9 145 -22 176 -30 88 -22 222 -91 373 -192 76 -51 150 -96 165 -100 116
-28 453 -235 598 -367 107 -99 162 -175 247 -344 50 -98 96 -173 128 -210 59
-68 82 -116 130 -277 52 -174 66 -245 73 -380 7 -117 -9 -276 -46 -465 -18
-92 -79 -270 -124 -365 -23 -49 -67 -142 -98 -205 -81 -171 -164 -289 -286
-409 -232 -229 -323 -281 -651 -375 -283 -82 -307 -87 -470 -105 -300 -34
-495 -31 -810 14 -186 26 -304 42 -658 90 -267 36 -401 78 -602 189 -36 20
-83 45 -105 57 -125 68 -385 275 -469 373 -28 32 -68 101 -101 172 -31 66 -60
128 -65 139 -44 93 -100 356 -100 475 0 59 20 215 50 390 6 36 22 97 35 135
13 39 36 119 50 178 14 59 37 129 50 155 35 71 147 304 199 415 25 54 52 120
60 145 27 91 95 210 139 246 190 154 481 302 907 461 362 135 528 186 675 205
97 12 386 4 530 -15z m-1507 -82 c-8 -41 -228 -123 -228 -84 0 6 5 11 12 11 6
0 25 10 42 23 42 31 123 65 159 66 12 1 17 -5 15 -16z m-298 -133 c-20 -13
-33 -13 -25 0 3 6 14 10 23 10 15 0 15 -2 2 -10z m3982 -1387 c85 -71 158
-187 158 -250 0 -39 -5 -49 -47 -91 -52 -52 -127 -106 -166 -121 -47 -18 -54
0 -61 159 -4 80 -11 165 -16 190 -14 69 -12 79 19 111 37 36 70 37 113 2z
m-3869 -2185 c18 -12 57 -46 87 -74 30 -29 87 -71 127 -93 115 -65 211 -130
227 -153 14 -19 13 -24 -1 -47 -21 -34 -365 -361 -397 -378 -22 -12 -26 -11
-40 9 -9 12 -16 41 -16 65 0 23 -7 73 -15 111 -8 38 -19 121 -26 183 -6 63
-21 168 -34 233 -27 139 -23 166 26 166 17 0 45 -10 62 -22z m691 -133 c71 -9
140 -21 153 -26 37 -14 28 -38 -23 -61 -40 -17 -58 -19 -138 -13 -73 5 -103
12 -154 37 -63 31 -89 59 -76 79 7 12 36 10 238 -16z m743 -112 c7 -17 -6 -30
-158 -160 -70 -60 -179 -166 -261 -254 -10 -11 -28 -19 -41 -19 -20 0 -34 18
-82 108 -94 173 -89 160 -71 181 21 23 352 120 410 121 12 0 46 9 76 20 70 24
119 25 127 3z m-2061 -1347 c22 -16 21 1 11 -371 -4 -137 -10 -258 -13 -268
-9 -28 -30 -5 -72 77 l-37 71 0 185 c0 128 4 200 14 235 23 80 53 103 97 71z"/>
<path d="M4075 7865 c-44 -7 -135 -34 -201 -59 -67 -25 -127 -46 -133 -46 -19
0 -111 -53 -153 -89 -26 -22 -38 -40 -36 -54 6 -40 30 -43 150 -14 62 14 149
28 193 31 89 6 180 26 237 55 30 15 52 17 108 13 70 -5 71 -4 100 28 48 53 41
75 -32 109 -79 36 -131 42 -233 26z"/>
<path d="M5125 7740 c-11 -4 -63 -52 -115 -105 -52 -54 -114 -111 -137 -128
-24 -16 -45 -37 -47 -46 -20 -76 -13 -105 34 -139 l28 -21 35 40 c39 43 56 47
111 24 32 -13 40 -14 71 -1 19 8 35 19 35 25 0 5 15 18 33 30 25 15 63 22 162
31 72 6 138 13 149 16 30 10 176 -17 238 -42 47 -20 75 -24 153 -24 115 0 155
15 155 58 0 87 -142 173 -326 197 -55 8 -127 20 -160 28 -32 9 -104 20 -159
26 -55 7 -125 18 -155 26 -62 17 -77 17 -105 5z"/>
<path d="M4220 7583 c8 -3 19 -11 23 -17 6 -7 7 -6 4 4 -2 8 -12 16 -23 17
-13 2 -15 1 -4 -4z"/>
<path d="M3899 7296 c-78 -20 -168 -89 -156 -120 3 -8 37 -24 74 -35 40 -12
86 -35 112 -56 36 -29 52 -35 92 -35 53 0 70 15 83 75 14 58 32 75 82 75 60 0
84 14 84 48 0 57 -39 66 -109 27 -52 -30 -54 -30 -108 -4 -65 31 -103 37 -154
25z"/>
<path d="M5178 7216 c-29 -15 -36 -67 -13 -103 9 -14 45 -38 78 -55 34 -16 80
-40 102 -54 36 -22 47 -23 110 -18 39 3 92 12 119 20 64 18 125 18 202 -2 79
-19 178 -16 182 7 8 41 -119 114 -283 164 -141 43 -442 68 -497 41z"/>
<path d="M5077 6543 c3 -10 14 -29 24 -43 9 -14 24 -52 33 -84 16 -65 22 -71
81 -87 22 -6 55 -17 74 -25 53 -23 59 -4 18 63 -40 65 -77 103 -123 126 -17 9
-39 27 -48 41 -20 31 -70 38 -59 9z"/>
<path d="M3860 6512 c-19 -9 -45 -32 -57 -50 -25 -39 -66 -142 -59 -150 7 -6
117 38 137 55 33 28 51 151 24 160 -5 2 -26 -5 -45 -15z"/>
<path d="M4535 6360 c-11 -4 -45 -13 -75 -20 -30 -7 -69 -21 -86 -31 -41 -25
-47 -24 -113 8 -70 34 -169 44 -194 18 -24 -23 -22 -33 17 -70 23 -22 56 -38
100 -50 56 -15 72 -25 101 -61 47 -57 92 -67 212 -47 48 8 144 18 213 23 181
11 314 51 356 105 51 67 26 85 -118 85 -79 0 -124 6 -193 25 -89 25 -181 31
-220 15z"/>
<path d="M4065 5924 c-76 -27 -154 -110 -176 -188 -28 -97 105 -240 202 -216
19 4 59 19 89 34 63 30 81 31 159 12 31 -8 83 -17 116 -20 144 -16 286 -39
355 -58 105 -29 219 -30 257 -2 35 26 68 102 59 137 -3 14 -43 63 -89 109 -74
74 -95 88 -180 126 -53 23 -120 47 -149 52 -55 11 -302 15 -317 5 -5 -2 -53 2
-107 10 -120 18 -167 18 -219 -1z m415 -150 c76 -5 188 -36 220 -62 30 -25 15
-36 -88 -63 -79 -21 -82 -22 -137 -4 -35 11 -69 15 -93 11 -115 -19 -136 -18
-171 6 -67 45 -67 76 0 111 29 16 47 17 119 12 47 -4 114 -9 150 -11z"/>
<path d="M4720 5224 c-92 -31 -241 -47 -426 -48 -166 -1 -179 -7 -171 -71 7
-48 36 -75 111 -100 47 -16 69 -17 222 -7 146 9 179 14 232 36 34 14 67 26 74
26 33 0 93 24 114 45 33 34 34 107 2 122 -45 22 -83 21 -158 -3z"/>
<path d="M4569 1478 c-1 -7 -1 -145 0 -306 2 -248 0 -297 -13 -324 -9 -17 -16
-37 -16 -45 0 -7 -4 -21 -9 -31 -5 -9 -12 -24 -15 -32 -4 -8 -15 -28 -25 -45
-11 -16 -20 -37 -20 -45 -1 -8 -13 -26 -26 -39 -30 -27 -32 -61 -7 -84 28 -26
44 -21 87 25 44 47 65 80 65 102 0 7 7 19 15 26 8 7 15 25 15 41 0 15 5 31 10
34 6 3 10 24 10 45 0 21 5 42 10 45 6 4 10 123 10 326 l0 319 -45 0 c-29 0
-45 -5 -46 -12z"/>
<path d="M4948 1398 l-3 -93 -92 -3 -93 -3 0 -309 0 -310 23 -1 c39 -2 62 3
69 15 4 6 8 122 8 259 l0 247 45 0 45 0 2 -342 3 -343 58 -3 57 -3 0 106 c0
95 7 124 25 95 3 -6 34 -10 69 -10 100 0 96 -13 96 318 l0 281 -92 3 -93 3 -3
93 -3 92 -59 0 -59 0 -3 -92z m219 -393 c3 -241 4 -237 -50 -233 l-42 3 -3
213 -2 213 47 -3 48 -3 2 -190z"/>
<path d="M6200 1467 c0 -13 -18 -60 -41 -105 -37 -74 -44 -82 -70 -82 -25 0
-29 4 -29 29 0 17 -4 32 -9 36 -12 7 -41 64 -41 80 0 22 -38 47 -67 43 -23 -2
-29 -8 -31 -34 -2 -19 3 -36 12 -44 9 -7 16 -23 16 -36 0 -12 5 -26 10 -29 6
-3 10 -15 10 -26 0 -14 -7 -19 -27 -19 -14 0 -34 -7 -44 -16 -34 -31 -48 -11
-51 73 l-3 78 -200 0 -200 0 0 -30 c0 -29 2 -30 55 -35 l55 -5 0 -45 0 -45
-77 -3 c-64 -2 -78 -6 -83 -21 -13 -41 3 -51 80 -51 69 0 99 -10 75 -25 -5 -3
-10 -16 -10 -29 0 -32 -19 -46 -63 -46 -37 0 -38 -1 -35 -32 3 -29 7 -33 36
-36 32 -3 41 -15 22 -27 -5 -3 -10 -16 -10 -29 0 -25 -25 -82 -41 -91 -5 -4
-9 -15 -9 -26 0 -10 -4 -19 -9 -19 -5 0 -16 -12 -26 -26 -16 -25 -16 -27 6
-50 13 -14 28 -23 34 -20 47 19 44 25 47 -96 l3 -113 38 -3 c42 -4 64 10 78
45 8 21 14 22 121 25 l113 3 3 159 c2 121 -1 161 -10 168 -7 4 -66 8 -130 8
-129 0 -132 2 -103 56 15 29 15 29 127 34 l113 5 3 77 c3 77 3 78 36 93 23 11
55 15 107 13 l74 -3 3 -49 c4 -60 -3 -66 -86 -66 l-63 0 3 -42 3 -43 50 -3
c94 -5 95 -5 95 -71 0 -36 -5 -63 -13 -69 -7 -6 -51 -12 -97 -14 l-85 -3 0
-40 0 -40 75 -3 c129 -4 120 6 120 -127 l0 -115 45 0 44 0 3 118 3 117 93 3
c50 1 92 6 93 10 0 4 2 16 4 27 10 48 -1 55 -85 55 -110 0 -110 0 -110 76 0
72 0 71 95 76 l50 3 0 40 0 40 -50 3 c-94 5 -95 5 -95 67 l0 55 73 0 c85 0
100 7 95 46 -3 26 -7 29 -45 32 -24 2 -43 5 -43 7 0 3 9 20 20 40 11 20 20 46
20 59 0 13 7 29 15 36 24 20 17 39 -21 55 -50 21 -64 19 -64 -8z m-465 -167
l0 -45 -40 0 c-38 0 -40 2 -43 33 -5 53 3 64 45 60 38 -3 38 -3 38 -48z m3
-167 l-3 -48 -45 -1 c-25 -1 -49 2 -55 6 -8 7 -10 38 -6 83 1 4 26 7 57 7 l55
0 -3 -47z m0 -395 l-3 -83 -65 0 -65 0 -3 69 c-2 38 -1 75 2 83 4 9 25 13 71
13 l66 0 -3 -82z"/>
<path d="M7885 1478 c-2 -7 -6 -38 -7 -68 l-3 -55 -185 -5 -185 -5 -3 -32 -3
-33 188 -2 188 -3 3 -117 3 -118 -56 0 c-51 0 -56 2 -50 19 3 11 1 22 -5 26
-5 3 -10 19 -10 34 0 16 -10 37 -25 51 -14 13 -25 31 -25 40 0 27 -22 40 -67
40 -31 0 -45 -5 -50 -16 -3 -9 -2 -19 4 -23 18 -12 73 -138 67 -154 -5 -13
-25 -17 -107 -19 l-102 -3 0 -45 0 -45 165 -3 c91 -1 171 -5 179 -7 18 -7
-155 -185 -180 -185 -9 0 -24 -9 -35 -21 -10 -11 -39 -30 -63 -41 -79 -36 -88
-58 -43 -101 l28 -27 55 28 c31 15 73 41 93 57 73 58 206 189 206 202 0 7 4
13 10 13 6 0 11 -69 12 -172 l3 -173 45 0 45 0 3 163 c1 89 6 162 10 162 4 0
54 -47 112 -105 58 -58 110 -105 116 -105 6 0 21 -11 34 -25 13 -14 30 -25 38
-25 9 0 24 -8 34 -17 17 -16 20 -15 53 17 41 39 44 57 13 71 -36 16 -66 34
-86 52 -10 10 -24 17 -30 17 -6 0 -29 16 -50 36 -22 20 -50 41 -62 47 -13 7
-32 28 -43 47 -10 19 -28 41 -38 48 -10 7 -19 20 -19 27 0 12 30 15 163 17
l162 3 3 33 c5 55 -8 62 -118 62 l-98 0 18 38 c10 21 26 44 34 52 9 7 16 18
16 25 0 7 7 18 16 25 8 8 14 25 12 39 -3 23 -8 26 -46 29 -47 3 -72 -10 -72
-38 0 -10 -7 -23 -15 -30 -8 -7 -15 -25 -15 -39 0 -16 -10 -37 -25 -51 -14
-13 -25 -29 -25 -37 0 -9 -14 -13 -45 -13 l-46 0 3 118 3 117 178 3 178 2 -3
33 -3 32 -175 5 -175 5 -5 65 -5 65 -43 3 c-28 2 -44 -1 -47 -10z"/>
<path d="M796 1455 c-3 -9 -6 -184 -5 -388 0 -205 0 -386 -1 -404 l0 -32 -117
-3 c-109 -3 -118 -4 -121 -23 -6 -48 1 -49 270 -52 139 -2 277 -1 306 3 53 6
53 6 50 37 l-3 32 -140 5 -140 5 0 210 0 210 105 5 105 5 0 30 0 30 -105 5
-105 5 -5 165 -5 165 -41 3 c-31 2 -43 -1 -48 -13z"/>
<path d="M340 1435 l-24 -26 79 -79 c90 -90 114 -99 139 -48 l16 32 -52 53
c-29 29 -57 53 -64 53 -6 0 -19 9 -29 20 -24 26 -37 25 -65 -5z"/>
<path d="M3471 1440 c-8 -4 -11 -53 -9 -156 l3 -149 332 -3 331 -2 6 57 c7 76
2 240 -8 250 -10 10 -640 13 -655 3z m589 -90 c0 -19 -9 -19 -240 -22 -132 -2
-245 -1 -250 0 -6 2 -10 12 -10 23 0 18 10 19 250 19 242 0 250 -1 250 -20z
m0 -120 c0 -19 -7 -20 -250 -20 -243 0 -250 1 -250 20 0 19 7 20 250 20 243 0
250 -1 250 -20z"/>
<path d="M1307 1413 c-4 -3 -7 -23 -7 -44 0 -46 7 -49 121 -49 106 0 101 7 97
-150 l-3 -105 -115 -3 c-121 -3 -130 -6 -130 -53 0 -43 16 -49 131 -49 83 0
108 -3 112 -14 3 -8 -1 -20 -9 -26 -8 -7 -14 -25 -14 -41 0 -15 -4 -31 -10
-34 -5 -3 -10 -17 -10 -30 0 -13 -11 -37 -25 -53 -14 -17 -25 -34 -25 -39 0
-11 -106 -112 -135 -129 -19 -11 -18 -13 14 -48 19 -20 42 -36 50 -36 21 0
191 171 191 192 0 9 5 20 10 23 6 3 10 17 10 30 0 13 7 30 15 39 8 8 15 32 15
53 0 22 4 43 9 49 5 5 11 20 13 34 l3 25 130 0 130 0 3 -222 2 -223 45 0 45 0
2 223 3 222 115 5 115 5 3 47 3 47 -118 3 -118 3 0 125 0 125 85 3 c129 3 132
5 128 55 l-3 42 -436 3 c-239 1 -439 -1 -442 -5z m571 -203 c4 -162 15 -151
-136 -148 l-127 3 -3 114 c-1 63 0 121 2 128 4 11 34 13 133 11 l128 -3 3
-105z"/>
<path d="M6567 1413 c-4 -3 -7 -61 -7 -129 0 -118 1 -122 23 -125 12 -2 163
-3 335 -1 l312 3 0 129 0 130 -328 0 c-181 0 -332 -3 -335 -7z m543 -113 l0
-50 -222 2 -223 3 -3 33 c-6 64 -14 62 228 62 l220 0 0 -50z"/>
<path d="M9274 1410 c-6 -6 -151 -11 -374 -12 l-365 -3 0 -45 0 -45 308 -3
c169 -1 307 -6 307 -11 0 -11 -34 -41 -47 -41 -5 0 -18 -9 -28 -20 -10 -11
-24 -20 -30 -20 -7 0 -30 -16 -51 -35 -22 -20 -49 -40 -61 -45 -23 -9 -23 -10
-23 -254 0 -212 -2 -245 -16 -257 -15 -13 -54 -17 -151 -18 -35 -1 -43 -4 -43
-19 0 -41 30 -52 147 -52 109 0 110 0 136 30 l27 30 0 240 c0 240 0 241 23
251 42 19 70 37 103 68 18 17 38 31 46 31 7 0 35 23 62 50 27 28 54 50 60 50
17 0 66 53 66 70 0 20 -31 50 -51 50 -8 0 -19 5 -25 10 -7 7 -13 7 -20 0z"/>
<path d="M4407 1343 c-4 -3 -7 -115 -7 -249 0 -261 -2 -254 54 -254 44 0 46
12 46 251 0 125 -3 234 -6 243 -6 16 -73 23 -87 9z"/>
<path d="M224 1146 c-3 -8 -4 -29 -2 -48 l3 -33 80 -5 80 -5 3 -191 2 -190
-25 -30 c-31 -35 -32 -58 -4 -78 19 -13 25 -12 59 5 21 11 46 29 55 39 10 11
25 20 34 20 9 0 41 25 70 56 46 48 52 59 42 73 -6 9 -14 24 -17 34 -9 24 -20
21 -55 -14 -16 -17 -37 -29 -47 -27 -15 3 -17 23 -20 198 -2 140 -6 196 -15
202 -6 4 -63 8 -125 8 -88 0 -114 -3 -118 -14z"/>
<path d="M3457 1082 l-138 -3 3 -32 c3 -30 6 -32 46 -35 l42 -3 0 -163 c0
-145 -2 -165 -18 -179 -10 -10 -31 -17 -45 -17 -32 0 -37 -28 -9 -53 15 -13
39 -17 113 -17 54 0 100 5 106 11 5 5 34 9 64 7 l54 -3 3 -42 3 -43 45 0 c24
0 45 5 45 10 1 6 3 15 4 20 1 6 3 15 4 20 2 18 18 11 24 -10 4 -15 14 -20 40
-20 34 0 91 23 102 41 4 5 15 9 26 9 10 0 19 5 19 10 0 19 55 10 110 -17 30
-16 57 -31 58 -35 2 -5 23 -8 46 -8 44 0 76 22 76 51 -1 14 -65 49 -92 49 -25
0 -78 30 -78 45 0 7 7 18 15 25 8 7 12 16 9 21 -3 5 6 20 20 34 15 14 26 30
26 36 0 5 11 27 25 49 14 22 25 46 25 54 0 8 5 18 10 21 17 10 11 25 -9 25
-11 0 -23 5 -26 10 -4 6 -83 10 -206 10 l-199 0 0 -35 c0 -28 4 -35 20 -35 15
0 20 -7 20 -28 0 -17 9 -37 23 -50 12 -11 30 -38 41 -59 10 -21 22 -45 26 -54
6 -12 1 -24 -18 -41 -33 -30 -107 -63 -121 -54 -18 11 -13 24 11 28 12 2 28
14 35 28 11 22 10 28 -7 44 -15 15 -22 17 -33 7 -11 -9 -16 -9 -19 1 -4 10 -3
213 1 286 1 9 55 12 235 12 208 0 235 2 240 16 4 9 4 25 1 35 -6 17 -17 19
-88 19 -45 0 -192 1 -327 3 -135 1 -307 1 -383 -1z m220 -88 c9 -23 -13 -33
-76 -33 -72 0 -91 6 -91 30 0 17 8 19 80 19 65 0 82 -3 87 -16z m-2 -139 l0
-30 -82 -3 -83 -3 0 36 0 36 83 -3 82 -3 0 -30z m435 16 c0 -10 -7 -24 -15
-31 -8 -7 -15 -18 -15 -24 0 -7 -13 -24 -28 -39 l-28 -27 -27 28 c-15 15 -27
32 -27 37 0 5 -7 16 -16 26 -32 36 -11 49 76 49 72 0 80 -2 80 -19z m-441
-130 c23 -15 5 -41 -28 -41 -16 0 -33 -4 -36 -10 -3 -5 -26 -10 -51 -10 -42 0
-44 1 -44 28 0 16 3 32 7 35 10 10 136 8 152 -2z"/>
<path d="M6578 1082 l-38 -3 0 -190 0 -189 45 0 44 0 3 153 3 152 260 0 260 0
5 -150 5 -150 58 -3 57 -3 0 191 0 190 -82 1 c-359 3 -589 4 -620 1z"/>
<path d="M6837 940 c-9 -14 -13 -39 -11 -73 4 -66 -22 -134 -53 -142 -13 -3
-23 -9 -23 -14 0 -14 -90 -61 -116 -61 -12 0 -26 -4 -29 -10 -3 -5 -16 -10
-28 -10 -12 0 -31 -7 -41 -15 -11 -8 -37 -15 -58 -15 -47 0 -51 -24 -10 -63
29 -28 56 -35 67 -17 3 6 26 10 50 10 24 0 45 3 47 8 5 11 68 42 87 42 21 0
78 27 86 41 4 5 13 9 21 9 16 0 74 55 74 70 0 5 11 30 25 55 23 39 25 55 23
123 l-3 77 -47 3 c-38 2 -49 -1 -61 -18z"/>
<path d="M2495 851 c-3 -6 -19 -11 -36 -11 -20 0 -29 -5 -29 -17 0 -9 -7 -25
-17 -35 -15 -17 -15 -19 0 -36 10 -10 17 -26 17 -35 0 -10 11 -17 33 -19 25
-2 33 -8 35 -26 4 -29 -42 -92 -67 -92 -10 0 -24 -6 -30 -14 -14 -16 -4 -73
14 -80 33 -12 155 80 155 118 0 7 7 19 15 26 36 30 8 200 -35 213 -8 3 -22 8
-31 12 -10 3 -20 2 -24 -4z"/>
<path d="M6938 711 c-10 -20 -18 -40 -18 -44 0 -9 61 -37 84 -37 12 0 30 -7
40 -15 11 -8 28 -15 38 -15 9 0 37 -11 62 -25 25 -14 52 -25 61 -25 8 0 24 -4
35 -10 11 -5 28 -14 39 -19 14 -8 24 -4 45 18 35 37 33 53 -11 75 -21 10 -46
22 -55 27 -10 5 -26 9 -35 9 -10 0 -27 7 -37 15 -11 8 -28 15 -38 15 -10 0
-26 4 -36 9 -41 21 -69 32 -92 36 -14 3 -26 9 -28 15 -8 23 -38 7 -54 -29z"/>
</g>
</svg>
